<?xml version="1.0" encoding="UTF-8"?><svg id="_レイヤー_2" xmlns="http://www.w3.org/2000/svg" viewBox="0 0 342.39 80.01"><defs><style>.cls-1{fill:inherit;}</style></defs><g id="_レイヤー_"><path class="cls-1" d="M43.61,28.37c-.73,1.03-1.21,1.03-3.88,1.03h-6.35c-2.79,0-9.11-.06-11.9-.18-.36-.06-2.24-.24-2.67-.24-.12,0-.24.06-.24.12,0,.12.06.18.3.42l1.15,1.4c.18.24.3.36.55.36.18,0,1.09-.12,1.27-.12,2.12-.12,9.9-.18,11.23-.18h13.69c2,0,3.22,0,3.22-.79,0-.36-2.61-4.13-4.13-4.13-.67,0-.79.24-2.25,2.31Z"/><path class="cls-1" d="M17.67,10.37c.15-.49.39-1.52.64-1.55.08-.01,4.09.93,4.21,1.77.05.34-.92.82-.92.82-2.44,6.68-8.01,11.22-11.48,12.44l-.33-.31c2.8-2.07,6.78-8.39,7.88-13.16Z"/><path class="cls-1" d="M50.24,18.34c2.18,0,3.28,0,3.28-.91,0-.97-3.82-4.37-4.73-4.37-.67,0-2.61,2.79-3.1,3.22-.43.42-.73.42-3.28.42h-19.89v.77-.77h0v1.64s27.71,0,27.71,0Z"/><path class="cls-1" d="M64.66,67.11c-.01-1.27.53-7.49.48-8.94,0-.12-.01-.42-.32-.41-.61.02-1.51,9.68-3.02,9.73-.67.02-3.24-1.69-3.74-2.28-2.28-2.65-2.7-8.04-2.84-12.23-.08-2.3-.21-9.34,1.69-10.31,1.14-.52,1.49-.72,1.47-1.33-.02-.55-2.86-3.85-3.83-3.82-.55.02-2.55,1.85-3.09,2.11-.6.32-1.14.34-1.57.36H11.85c-.37-.05-2.25-.17-2.68-.15-.18,0-.24.07-.24.13,0,.12.07.18.26.42l1.26,1.35c.19.24.31.35.56.35.18,0,1.03-.16,1.27-.17,2.12-.19,14.37-.29,15.77-.34h21.77c1.15-.05,1.72.48,1.75,1.39.01.36-.13,1.58-.18,1.89-.23,2.31-.18,6.62-.09,9.35.26,7.7,1.62,11.78,4.28,15.16,1.77,2.19,5.76,3.93,8.24,3.85.91-.03,2-.37,2-1.77,0-1.7-1.17-2.79-1.18-4.33Z"/><path class="cls-1" d="M32.32,50.69c0-1.13-5.14-3.17-5.44-3.2-.2,0-.22,0-.48.87-.06.19-.13.41-.21.68-1.55,4.89-4.66,9.86-6.15,9.86-.34,0-2.17-.84-4.34-1.85-.66-.31-1.24-.58-1.5-.69-3.83-1.56-6.62-2.57-7.12-2.57-.05,0-.2.05-.2.11.06.26,1.8,1.41,3.48,2.52,3.97,2.62,7.01,4.71,7.01,5.79,0,1.39-7.85,7.85-14.28,10.83-1.67.76-3,1.47-3.09,1.66,0,.13.05.15.26.15,1.2,0,10.09-2.38,18.22-8.74,1.2-.97,1.51-1.15,2.1-1.15,1.6,0,3.9,3.72,3.92,3.76,1,1.51,1.8,2.7,3.55,2.7.57,0,2.42-.15,2.42-2.07s-3.23-4.86-4.22-5.69c-2-1.77-2.26-1.99-2.26-2.62,0-.32.27-.8.39-.97.08-.11.26-.35.49-.64.45-.59,1.07-1.4,1.24-1.66h0c2.85-3.95,4.38-5.74,5.28-6.18.64-.29.92-.49.92-.91Z"/><rect class="cls-1" x="108.62" y="56.53" width="13.47" height="1.63" rx=".5" ry=".5"/><path class="cls-1" d="M143.53,12.67c.24.24.36.36.55.36.24,0,1.09-.12,1.27-.12,2.12-.18,6.25-.18,7.71-.18h5.27c1.76,0,1.82,1.09,1.82,2.79v19.85h-.01c.16.38.48.67,1.11.67,3.22,0,3.22-2.31,3.22-3.22,0-2.25-.18-14.39-.18-16.39,0-1.76,0-2.43.36-2.79.24-.24,1.4-1.09,1.4-1.4,0-.79-3.7-3.22-4.31-3.22-.49,0-.85.49-1.4,1.33-.42.55-.73.79-1.76.79h-5.21c-3.46,0-6.61-.12-8.37-.24-.42,0-2.25-.18-2.67-.18-.06,0-.18,0-.18.12s0,.12.24.42l1.15,1.4Z"/><path class="cls-1" d="M167.34,67.62c-.24-.67-.48-4.55-.91-4.55-.18,0-.3.3-.48.79-1.64,4.31-1.76,4.79-2.67,5.46-1.46,1.09-9.65,1.09-10.62,1.09-7.52,0-11-3.03-11-7.65v-19.18c0-.37-.2-.71-.54-.89-1.04-.53-3.25-1.65-3.53-1.65-.24,0-.55.06-.55.42s.34,1.43.36,2.43c.06,1.4.24,5.15.24,6.85,0,1.82-.18,9.65-.18,11.23,0,8.8,4.14,12.07,15.43,12.07.85,0,10.44,0,12.69-.85,2.24-.85,3.28-2.06,3.28-2.85,0-.48-1.4-2.31-1.52-2.73Z"/><rect class="cls-1" x="143.45" y="37.44" width="10.08" height="1.7" rx=".52" ry=".52"/><path class="cls-1" d="M102.73,15.78c.06,0,1.4-.18,1.64-.18,1.09-.06,2.83-.12,3.92-.12h0s13.07,0,13.07,0h4.91c1.82,0,2.97,0,2.97-.79,0-1.09-3.82-3.76-4.43-3.76-.67,0-.79.18-2.12,1.94-.79,1.03-1.03,1.03-3.58,1.03h-7.83c-3.22,0-6.13-.18-7.77-.24-.36,0-2.06-.18-2.43-.18-.12,0-.24,0-.24.12s.06.12.24.43l1.09,1.4c.24.24.3.36.55.36Z"/><path class="cls-1" d="M129.34,37.57c.25-.32,1.16-1.1,1.16-1.32,0-.73-3.46-2.97-3.7-2.97-.3,0-1.34,1.15-1.58,1.33-.36.24-.85.3-1.33.3h-2.48c-1.52,0-1.51.19-1.52-5.57v-1.67c0-.42-.34-.77-.77-.77h-1.59c-.42,0-.77.34-.77.77l-.02,2.39c0,.85,0,4.25-.3,4.55-.3.3-.61.3-1.52.3-1.27,0-1.27-.79-1.27-1.58,0-.55,0-4.01-.01-5.67,0-.43-.35-.76-.77-.76h-1.66c-.43,0-.77.34-.77.76,0,1.03,0,2.66,0,5.24,0,2-2.83,2-4.95,2-.61,0-1.21,0-2.73-.85-.55-.3-1.58-.85-2.06-.85-.36,0-.49.3-.49.55,0,.3.3,1.64.36,1.94.18,1.21.24,2.43.24,8.98,0,15.59-.12,18.51-.42,26.46,0,.24-.06,2-.06,2.18,0,.61,0,1.52,1.4,1.52,2.61,0,2.79-2.18,2.79-2.85.18-1.76.24-2.67,1.7-2.67h17.38c.97,0,1.94,0,1.94,1.94,0,2.91,0,3.22,1.4,3.22,1.58,0,2.79-.91,2.79-2.61,0-1.33-.42-7.52-.48-8.8-.06-3.03-.36-16.57-.36-19.3,0-1.23,0-5.15.39-6.05.03-.06.05-.1.09-.15ZM125.71,63.89h0c-.03,3.58-.24,3.86-1.88,3.86h-17.5c-1.74,0-1.87-.45-1.88-3.86h0v-6.48c-.05-.37-.06-.83-.06-1.4h0v-4.28s0-.02,0-.04c-.05-.51-.06-13.93.18-14.41.36-.73,2.95-.73,4.29-.73,1.46,0,1.52.85,1.52,1.76,0,2.73-.13,6.86-1.04,9.35-.69,1.8-2.7,2.59-2.47,3.16.24.59,6.58-1.86,6.73-11.1.05-2.85.12-3.16,1.27-3.16,1.09,0,1.64,0,1.82.67v8.07c0,4.79,0,5.83,4.01,5.83.36,0,1.64-.08,2.49-.24.85-.16.52-2.22.4-2.87-.12-.65-.29-1.6-.34-1.74-.06-.55-.3-1.64-.49-1.64s-.3.42-.36,1.03c0,.79-.24,1.94-1.34,1.94s-1.15-.91-1.15-1.58v-7.89c0-1.33.67-1.58,1.58-1.58h2.36c1.15,0,1.58.42,1.58,1.46,0,1.14.08,5.25.11,7.38h.01s.13,7.06.17,9.68h.01v8.81Z"/><path class="cls-1" d="M279.94,43.99c-7.31,7.12-15.65,10.69-15.21,10.69l-.29-.66c11.04-7.36,19.27-18.42,20.23-23.76,1.62.5,6.07,2.4,5.97,3.73-.04.57-.71.97-2.03.87-.32-.02-.63-.05-.95-.13-1.29,2.07-2.98,4.24-4.91,6.4"/><path class="cls-1" d="M286.03,51.13c3.3.25,3.43,1.08,3.43,1.4,0,.57-.7,1.21-2.16,1.46-.07.83-.13,11.55-.13,11.55,0,1.08-.06,3.3-.06,6.16,0,1.4,0,2.98.06,4.63,0,.63.06,1.21.06,1.97,0,1.27-1.39,1.71-2.85,1.71-.89,0-1.71-.19-1.71-1.27v-.19c0-.25.13-1.27.19-2.73.26-4.38.45-8.57.45-10.28l.13-7.68v-3.68c-.03-1.18-.27-3.33-.33-3.7.7.27,2.02.56,2.94.65Z"/><path class="cls-1" d="M311.66,63.45c0,3.43,1.84,3.94,6.41,3.94,3.11,0,9.4-.25,10.99-.89,1.84-.76,3.11-4.08,4.32-12.77l.85.05s-.4,8.09-.4,9.42.25,1.97,1.08,2.35c.95.44,1.52.89,1.52,1.84,0,3.24-9.91,3.81-16.89,3.81-6.47,0-11.75-.32-11.75-6.67v-.19s.19-24.03.19-24.73c0-1.59-.19-4.51-.32-5.9,5.52.44,6.73.89,6.73,1.78,0,.63-.76,1.27-2.48,1.59"/><path class="cls-1" d="M322.04,46.22c4.85-1.89,12.67-6.12,15.78-12.03,1.33.51,4.56,2.8,4.56,4.33,0,.44-.45.83-1.27.83-.44,0-1.01-.13-1.78-.38-5.4,3.94-10.02,5.15-17.04,7.7l-.26-.45Z"/><path class="cls-1" d="M329.04,3.68c-.13,0-1.08.38-3.62,4.19h-7.28c0-1.84,0-4.32.07-4.76,1.59-.38,2.28-1.02,2.28-1.59,0-1.08-3.05-1.52-6.67-1.52.38,2.54.45,4.06.45,5.97v1.9h-8.18v1.84h8.18c0,2.98-.32,5.65-.32,5.9v.13c0,.95.76,1.27,1.78,1.27,2.48,0,2.54-1.33,2.54-1.65,0-.57,0-1.01-.06-2.09-.07-1.27-.07-2.09-.07-3.24v-.32h15.34c.89,0,1.27-.57,1.27-1.08,0-1.46-5.33-4.95-5.71-4.95Z"/><path class="cls-1" d="M286.24,15.74h9.37v-1.84h-9.43v-2.41c0-.38,0-1.52.13-2.29,1.52-.51,2.28-1.14,2.28-1.65,0-1.08-2.67-1.52-6.73-1.52.32,2.29.44,3.43.44,5.27v2.6h-1.97c-4.95,0-8.19-.25-11.17-.57,0,.83.57,2.35,1.08,2.92,3.05-.32,9.86-.51,11.58-.51h.48v.51c0,1.02-.25,4.13-.32,4.89v.13c0,.95.76,1.27,1.78,1.27,2.48,0,2.54-1.33,2.54-1.65,0-.7-.07-1.21-.07-1.78v-3.36Z"/><path class="cls-1" d="M233.2,33.67c3.39,3.33,5,7.56,5,12.24,0,7.09-3.65,13.03-9.9,16.26-1.04.57-3.96,1.82-5.05,1.82-.78,0-2.19-1.56-2.19-2.19,0-.42.42-.52.73-.57,7.61-1.25,13.34-7.24,13.34-15.11,0-6.72-4.17-12.66-10.84-14.28-.63-.16-1.62-.36-2.29-.36-1.46,0-1.46,1.3-1.51,2.19-.36,7.82-2.29,17.92-7.35,24.12-1.51,1.82-3.54,3.6-6.04,3.6-2.76,0-5-2.14-6.2-4.43-1.09-2.03-1.46-4.69-1.46-6.98,0-11.83,8.96-21.26,20.89-21.26,4.9,0,9.38,1.46,12.87,4.95ZM214.75,32.32c-7.66,2.66-12.4,9.38-12.4,17.46,0,2.81.99,8.6,4.64,8.6,3.28,0,6.3-5.73,7.35-8.44,2.03-5.31,2.92-10.73,3.28-16.41,0-.16.05-.42.05-.57,0-.57-.36-1.09-.99-1.09-.52,0-1.46.31-1.93.47Z"/></g></svg>